<svg width="300" height="200" xmlns="http://www.w3.org/2000/svg">
  <defs>
    <linearGradient id="bg" x1="0%" y1="0%" x2="100%" y2="100%">
      <stop offset="0%" style="stop-color:#667eea;stop-opacity:1" />
      <stop offset="100%" style="stop-color:#764ba2;stop-opacity:1" />
    </linearGradient>
  </defs>
  <rect width="300" height="200" fill="url(#bg)"/>
  <text x="150" y="40" font-family="Arial, sans-serif" font-size="20" font-weight="bold" text-anchor="middle" fill="white">数字拼图</text>
  <!-- 拼图网格 -->
  <rect x="100" y="60" width="100" height="100" fill="rgba(0,0,0,0.2)" rx="5"/>
  <!-- 数字块 -->
  <rect x="105" y="65" width="20" height="20" fill="#667eea" rx="3"/>
  <text x="115" y="78" font-family="Arial" font-size="12" text-anchor="middle" fill="white">1</text>
  <rect x="130" y="65" width="20" height="20" fill="#667eea" rx="3"/>
  <text x="140" y="78" font-family="Arial" font-size="12" text-anchor="middle" fill="white">2</text>
  <rect x="155" y="65" width="20" height="20" fill="#667eea" rx="3"/>
  <text x="165" y="78" font-family="Arial" font-size="12" text-anchor="middle" fill="white">3</text>
  <rect x="180" y="65" width="20" height="20" fill="#667eea" rx="3"/>
  <text x="190" y="78" font-family="Arial" font-size="12" text-anchor="middle" fill="white">4</text>
  
  <rect x="105" y="90" width="20" height="20" fill="#667eea" rx="3"/>
  <text x="115" y="103" font-family="Arial" font-size="12" text-anchor="middle" fill="white">5</text>
  <rect x="130" y="90" width="20" height="20" fill="#667eea" rx="3"/>
  <text x="140" y="103" font-family="Arial" font-size="12" text-anchor="middle" fill="white">6</text>
  <rect x="155" y="90" width="20" height="20" fill="#667eea" rx="3"/>
  <text x="165" y="103" font-family="Arial" font-size="12" text-anchor="middle" fill="white">7</text>
  <rect x="180" y="90" width="20" height="20" fill="#667eea" rx="3"/>
  <text x="190" y="103" font-family="Arial" font-size="12" text-anchor="middle" fill="white">8</text>
  
  <rect x="105" y="115" width="20" height="20" fill="#667eea" rx="3"/>
  <text x="115" y="128" font-family="Arial" font-size="12" text-anchor="middle" fill="white">9</text>
  <rect x="130" y="115" width="20" height="20" fill="#667eea" rx="3"/>
  <text x="140" y="128" font-family="Arial" font-size="11" text-anchor="middle" fill="white">10</text>
  <rect x="155" y="115" width="20" height="20" fill="#667eea" rx="3"/>
  <text x="165" y="128" font-family="Arial" font-size="11" text-anchor="middle" fill="white">11</text>
  <rect x="180" y="115" width="20" height="20" fill="#667eea" rx="3"/>
  <text x="190" y="128" font-family="Arial" font-size="11" text-anchor="middle" fill="white">12</text>
  
  <rect x="105" y="140" width="20" height="20" fill="#667eea" rx="3"/>
  <text x="115" y="153" font-family="Arial" font-size="11" text-anchor="middle" fill="white">13</text>
  <rect x="130" y="140" width="20" height="20" fill="#667eea" rx="3"/>
  <text x="140" y="153" font-family="Arial" font-size="11" text-anchor="middle" fill="white">14</text>
  <rect x="155" y="140" width="20" height="20" fill="#667eea" rx="3"/>
  <text x="165" y="153" font-family="Arial" font-size="11" text-anchor="middle" fill="white">15</text>
  <!-- 空位 -->
  <rect x="180" y="140" width="20" height="20" fill="rgba(255,255,255,0.1)" rx="3"/>
</svg>
